<?xml version="1.0" standalone="no"?>
<!DOCTYPE svg PUBLIC "-//W3C//DTD SVG 20010904//EN"
 "http://www.w3.org/TR/2001/REC-SVG-20010904/DTD/svg10.dtd">
<svg version="1.0" xmlns="http://www.w3.org/2000/svg"
 width="854.000000pt" height="853.000000pt" viewBox="0 0 854.000000 853.000000"
 preserveAspectRatio="xMidYMid meet">

<g transform="translate(0.000000,853.000000) scale(0.100000,-0.100000)"
fill="#000000" stroke="none">
<path d="M0 4265 l0 -4265 4270 0 4270 0 0 4265 0 4265 -4270 0 -4270 0 0
-4265z m5530 899 l0 -646 62 -120 c53 -106 63 -119 74 -104 7 10 44 80 84 157
l71 139 45 0 c24 0 44 -4 44 -9 0 -5 -47 -96 -105 -201 l-105 -190 0 -105 0
-105 -40 0 -40 0 0 98 c-1 96 -1 98 -45 177 l-45 80 0 -982 0 -983 -1610 0
-1610 0 0 846 0 845 -33 -25 c-58 -44 -109 -56 -243 -56 l-124 0 0 307 0 306
123 -6 c143 -8 180 -17 236 -57 l41 -30 0 655 0 655 1610 0 1610 0 0 -646z
m1422 -552 c7 -7 6 -17 -1 -31 -9 -16 -21 -21 -51 -21 -52 0 -62 -20 -68 -137
l-5 -93 57 0 56 0 0 -35 0 -35 -55 0 -55 0 0 -140 0 -140 -35 0 -35 0 0 140 0
140 -30 0 c-28 0 -30 3 -30 35 0 32 3 35 29 35 l29 0 4 114 c3 106 5 116 28
141 14 15 34 31 45 36 25 11 103 5 117 -9z m-5192 -62 l0 -40 -155 0 -155 0 0
-95 0 -95 135 0 135 0 0 -40 0 -40 -135 0 -135 0 0 -90 0 -90 160 0 160 0 0
-40 0 -40 -200 0 -200 0 0 305 0 305 195 0 195 0 0 -40z m4380 -75 c31 -38
-33 -88 -68 -53 -13 13 -16 50 -5 61 12 13 60 7 73 -8z m396 -150 c53 -22 64
-60 64 -215 l0 -130 -40 0 -40 0 0 118 c0 138 -10 165 -58 170 -78 8 -112 -51
-112 -193 l0 -95 -40 0 -40 0 0 175 0 175 34 0 c30 0 35 -4 41 -32 6 -27 9
-29 17 -14 12 21 83 55 116 56 12 0 38 -7 58 -15z m730 -4 c136 -62 137 -264
2 -330 -130 -62 -271 23 -271 164 0 138 140 225 269 166z m-1126 -166 l0 -175
-40 0 -40 0 0 175 0 175 40 0 40 0 0 -175z m-186 -101 c31 -31 13 -74 -31 -74
-33 0 -49 35 -28 66 18 28 37 31 59 8z"/>
<path d="M2410 4090 l0 -1620 1510 0 1510 0 0 1028 c-1 871 -3 1031 -15 1052
-18 32 -18 40 0 40 13 0 15 69 15 560 l0 560 -1510 0 -1510 0 0 -1620z m1639
191 c67 -161 121 -295 121 -297 0 -2 -20 -4 -44 -4 l-44 0 -32 80 -32 80 -113
0 -113 0 -32 -80 -32 -80 -39 0 -39 0 21 52 c38 98 231 563 236 572 4 5 10 1
14 -10 4 -10 62 -151 128 -313z m-1447 92 c3 -206 4 -220 26 -254 56 -91 186
-89 242 4 18 29 20 52 20 250 l0 217 40 0 40 0 0 -223 c0 -221 0 -224 -26
-276 -32 -62 -78 -97 -155 -113 -101 -21 -207 31 -248 122 -12 28 -16 82 -19
263 l-4 227 40 0 40 0 4 -217z m881 206 c23 -6 50 -16 60 -24 17 -12 18 -18 7
-49 -6 -20 -14 -36 -16 -36 -3 0 -22 9 -44 20 -46 24 -125 26 -174 6 -44 -18
-102 -80 -118 -125 -20 -58 -15 -150 11 -203 49 -103 173 -146 280 -98 24 11
46 20 50 20 4 0 12 -15 19 -32 15 -40 4 -51 -77 -75 -193 -56 -381 90 -381
296 0 216 175 353 383 300z m1107 -29 l0 -40 -80 0 -80 0 0 -265 0 -265 -40 0
-40 0 0 265 0 265 -75 0 -75 0 0 40 0 40 195 0 195 0 0 -40z m210 -265 l0
-305 -40 0 -40 0 0 305 0 305 40 0 40 0 0 -305z m520 265 l0 -40 -135 0 -135
0 0 -95 0 -95 120 0 120 0 0 -40 0 -40 -120 0 -120 0 0 -130 0 -130 -40 0 -40
0 0 305 0 305 175 0 175 0 0 -40z m-2850 -790 c0 -38 4 -70 9 -70 4 0 20 9 34
20 30 24 45 11 17 -15 -19 -17 -19 -18 0 -45 24 -33 25 -40 7 -40 -8 0 -20 11
-27 25 -16 30 -34 28 -38 -3 -2 -12 -8 -22 -13 -22 -5 0 -9 49 -9 110 0 67 4
110 10 110 6 0 10 -30 10 -70z m1680 -40 c0 -91 -3 -110 -15 -110 -12 0 -15
19 -15 110 0 91 3 110 15 110 12 0 15 -19 15 -110z m140 101 c0 -5 -9 -11 -20
-14 -15 -4 -20 -14 -20 -41 0 -25 4 -36 15 -36 8 0 15 -7 15 -15 0 -8 -7 -15
-15 -15 -11 0 -15 -12 -15 -45 0 -33 -4 -45 -15 -45 -11 0 -15 12 -15 45 0 25
-4 45 -10 45 -5 0 -10 7 -10 15 0 8 5 15 10 15 6 0 10 15 10 34 0 19 7 42 16
50 17 17 54 22 54 7z m620 -99 l0 -109 -49 -2 c-58 -2 -74 13 -69 66 2 31 8
39 31 47 20 7 34 7 47 -2 19 -12 20 -9 20 48 0 33 4 60 10 60 6 0 10 -43 10
-108z m290 28 c0 -21 5 -30 18 -31 16 -1 16 -2 0 -6 -14 -3 -18 -15 -18 -54 0
-37 -4 -49 -15 -49 -11 0 -15 12 -15 50 0 33 -4 50 -12 51 -10 0 -10 2 0 6 6
2 12 18 12 34 0 19 5 29 15 29 10 0 15 -10 15 -30z m-2506 -36 c24 -24 20 -34
-24 -51 -47 -19 -52 -33 -10 -33 17 0 30 -4 30 -10 0 -5 -16 -10 -35 -10 -26
0 -39 6 -51 25 -38 58 42 128 90 79z m167 -5 c24 -24 19 -32 -34 -49 -40 -12
-41 -35 -1 -27 16 3 24 0 24 -9 0 -18 -61 -19 -78 -2 -17 17 -15 68 5 90 22
24 58 23 84 -3z m89 12 c0 -5 14 -4 30 2 57 21 100 -36 66 -88 -15 -23 -23
-26 -57 -23 -38 3 -39 3 -39 -29 0 -18 -4 -33 -10 -33 -6 0 -10 37 -10 90 0
53 4 90 10 90 6 0 10 -4 10 -9z m512 -8 c20 -18 24 -73 6 -91 -17 -17 -74 -15
-92 4 -54 53 30 138 86 87z m318 11 c0 -4 -11 -17 -25 -30 -16 -15 -25 -34
-25 -54 0 -16 -4 -30 -10 -30 -5 0 -10 25 -10 55 0 30 5 55 10 55 6 0 10 -5
10 -12 0 -8 6 -6 17 5 17 17 33 22 33 11z m117 -10 c2 -7 -6 -10 -22 -7 -35 7
-32 -13 5 -32 32 -16 38 -33 18 -53 -15 -15 -64 -16 -73 -1 -4 6 3 9 21 7 36
-4 43 19 10 33 -25 12 -35 46 -19 63 11 10 56 3 60 -10z m157 0 c24 -24 20
-33 -24 -50 -47 -19 -52 -34 -10 -34 17 0 30 -4 30 -10 0 -5 -15 -10 -34 -10
-58 0 -86 60 -46 100 24 24 63 26 84 4z m576 6 c0 -7 6 -7 19 0 44 23 91 -2
91 -50 0 -44 -21 -63 -63 -58 -36 4 -37 3 -37 -29 0 -23 -5 -33 -15 -33 -12 0
-15 17 -15 90 0 53 4 90 10 90 6 0 10 -5 10 -10z m424 1 c3 -5 15 -7 26 -4 18
5 20 0 20 -50 l0 -54 -55 -2 c-44 -1 -56 3 -65 18 -15 29 -12 62 7 83 17 19
58 24 67 9z m320 -13 c18 -26 14 -31 -37 -48 -42 -13 -40 -30 4 -30 16 0 29
-4 29 -10 0 -5 -18 -10 -40 -10 -42 0 -60 18 -60 61 0 54 74 80 104 37z
m-2128 -23 c8 -19 16 -35 19 -35 3 0 11 16 19 35 8 19 20 35 25 35 6 0 11 -2
11 -4 0 -10 -63 -152 -71 -160 -15 -16 -19 -1 -7 30 9 25 7 37 -16 82 -22 43
-24 52 -11 52 9 0 23 -16 31 -35z m316 -7 c2 -33 8 -44 22 -46 24 -5 36 14 36
56 0 17 5 32 10 32 6 0 10 -25 10 -55 0 -39 -4 -55 -12 -53 -7 1 -23 -2 -36
-6 -35 -12 -52 9 -52 65 0 60 18 65 22 7z m908 -4 c0 -41 2 -45 23 -42 18 2
23 10 25 46 2 28 8 42 18 42 10 0 14 -14 14 -56 0 -47 -3 -55 -16 -50 -8 3
-24 1 -35 -4 -36 -20 -59 4 -59 60 0 38 4 50 15 50 11 0 15 -12 15 -46z"/>
<path d="M3863 4318 l-41 -103 80 -3 c44 -2 82 -1 84 1 5 5 -64 188 -75 200
-4 4 -26 -39 -48 -95z"/>
<path d="M4820 3695 c-26 -32 13 -81 48 -59 34 22 22 74 -18 74 -10 0 -23 -7
-30 -15z"/>
<path d="M2632 3698 c-24 -24 -15 -37 18 -25 31 12 35 30 9 35 -8 1 -20 -3
-27 -10z"/>
<path d="M2792 3698 c-24 -24 -14 -37 18 -25 17 6 30 17 30 24 0 16 -32 17
-48 1z"/>
<path d="M2966 3694 c-31 -30 -8 -69 36 -62 26 3 37 41 18 64 -16 18 -35 18
-54 -2z"/>
<path d="M3390 3691 c-25 -47 36 -83 64 -38 8 12 8 22 0 35 -16 25 -51 27 -64
3z"/>
<path d="M3993 3703 c-7 -2 -13 -12 -13 -20 0 -12 7 -14 27 -8 34 8 37 11 28
24 -6 11 -21 13 -42 4z"/>
<path d="M4650 3696 c-6 -8 -10 -25 -8 -38 4 -30 46 -38 65 -12 17 23 16 29
-3 48 -19 20 -38 20 -54 2z"/>
<path d="M5000 3690 c-16 -31 4 -62 38 -58 19 2 28 10 30 26 7 47 -47 72 -68
32z"/>
<path d="M5300 3690 c-9 -16 -8 -20 5 -20 24 0 56 20 50 31 -11 16 -44 10 -55
-11z"/>
<path d="M1990 4286 l0 -226 71 0 c95 0 142 16 189 62 49 49 63 92 58 178 -7
130 -82 196 -232 207 l-86 6 0 -227z"/>
<path d="M7110 4242 c-93 -93 10 -254 123 -193 53 28 75 121 40 171 -27 40
-45 49 -91 50 -35 0 -49 -6 -72 -28z"/>
</g>
</svg>
