<?xml version="1.0" standalone="no"?>
<!DOCTYPE svg PUBLIC "-//W3C//DTD SVG 20010904//EN"
 "http://www.w3.org/TR/2001/REC-SVG-20010904/DTD/svg10.dtd">
<svg version="1.0" xmlns="http://www.w3.org/2000/svg"
 width="847.000000pt" height="842.000000pt" viewBox="0 0 847.000000 842.000000"
 preserveAspectRatio="xMidYMid meet">

<g transform="translate(0.000000,842.000000) scale(0.100000,-0.100000)"
fill="#000000" stroke="none">
<path d="M910 6910 l0 -690 3455 0 3455 0 0 690 0 690 -3455 0 -3455 0 0 -690z"/>
<path d="M910 4150 l0 -690 3455 0 3455 0 0 690 0 690 -3455 0 -3455 0 0 -690z"/>
<path d="M910 1390 l0 -690 3455 0 3455 0 0 690 0 690 -3455 0 -3455 0 0 -690z"/>
</g>
</svg>
